<svg width="184" height="246" viewBox="0 0 184 246" fill="none" xmlns="http://www.w3.org/2000/svg">
<path d="M59.31 194.7C49.83 194.7 41.88 192.45 35.46 187.95C29.04 183.45 24.21 177.33 20.97 169.59C17.73 161.79 16.11 153.06 16.11 143.4C16.11 133.62 17.73 124.86 20.97 117.12C24.21 109.38 28.95 103.29 35.19 98.85C41.49 94.35 49.26 92.1 58.5 92.1C67.68 92.1 75.63 94.35 82.35 98.85C89.13 103.29 94.38 109.38 98.1 117.12C101.82 124.8 103.68 133.56 103.68 143.4C103.68 153.12 101.85 161.85 98.19 169.59C94.53 177.33 89.37 183.45 82.71 187.95C76.05 192.45 68.25 194.7 59.31 194.7ZM12.42 192V62.4H34.29V123.78H31.59V192H12.42ZM55.98 175.26C61.62 175.26 66.27 173.85 69.93 171.03C73.59 168.21 76.29 164.4 78.03 159.6C79.83 154.74 80.73 149.34 80.73 143.4C80.73 137.52 79.83 132.18 78.03 127.38C76.23 122.52 73.44 118.68 69.66 115.86C65.88 112.98 61.08 111.54 55.26 111.54C49.74 111.54 45.24 112.89 41.76 115.59C38.28 118.23 35.7 121.95 34.02 126.75C32.4 131.49 31.59 137.04 31.59 143.4C31.59 149.7 32.4 155.25 34.02 160.05C35.7 164.85 38.31 168.6 41.85 171.3C45.45 173.94 50.16 175.26 55.98 175.26ZM144.938 145.38C138.818 145.38 133.238 143.61 128.198 140.07C123.218 136.53 119.858 131.76 118.118 125.76L131.708 122.07C132.668 125.37 134.378 127.86 136.838 129.54C139.298 131.22 141.998 132.03 144.938 131.97C148.838 131.97 152.078 130.65 154.658 128.01C157.238 125.37 158.528 122.13 158.528 118.29C158.528 114.39 157.238 111.12 154.658 108.48C152.138 105.84 148.868 104.52 144.848 104.52C143.648 104.52 142.448 104.7 141.248 105.06C140.108 105.36 139.028 105.78 138.008 106.32L131.528 95.34L158.888 71.94L160.328 75.72H121.358V62.4H171.578V75.72L149.618 96.78L149.438 92.37C154.358 92.79 158.558 94.23 162.038 96.69C165.578 99.09 168.248 102.18 170.048 105.96C171.908 109.74 172.838 113.85 172.838 118.29C172.838 123.51 171.578 128.16 169.058 132.24C166.538 136.32 163.148 139.53 158.888 141.87C154.628 144.21 149.978 145.38 144.938 145.38Z" fill="white"/>
</svg>
